<svg width="164" height="158" viewBox="0 0 164 158" fill="none" xmlns="http://www.w3.org/2000/svg">
<path d="M132.305 21.0062L28.185 48.9051C26.5846 49.3339 25.6349 50.9789 26.0637 52.5793L53.3081 154.257C53.7369 155.857 55.3819 156.807 56.9823 156.378L161.102 128.479C162.703 128.05 163.652 126.405 163.224 124.805L135.979 23.1275C135.55 21.5271 133.905 20.5774 132.305 21.0062Z" fill="#7A57D1"/>
<path d="M110.793 0H3C1.34315 0 0 1.34315 0 3V108.264C0 109.921 1.34314 111.264 3 111.264H110.793C112.45 111.264 113.793 109.921 113.793 108.264V3C113.793 1.34315 112.45 0 110.793 0Z" fill="#4FC1E9"/>
</svg>
