<svg width="256" height="50" viewBox="0 0 256 50" fill="none" xmlns="http://www.w3.org/2000/svg">
<path d="M87.1 9.8V35H82.312L69.748 19.7V35H63.988V9.8H68.812L81.34 25.1V9.8H87.1ZM101.882 35.288C99.8422 35.288 98.0062 34.868 96.3742 34.028C94.7662 33.164 93.5062 31.976 92.5942 30.464C91.6822 28.952 91.2262 27.236 91.2262 25.316C91.2262 23.396 91.6822 21.68 92.5942 20.168C93.5062 18.656 94.7662 17.48 96.3742 16.64C98.0062 15.776 99.8422 15.344 101.882 15.344C103.922 15.344 105.746 15.776 107.354 16.64C108.962 17.48 110.222 18.656 111.134 20.168C112.046 21.68 112.502 23.396 112.502 25.316C112.502 27.236 112.046 28.952 111.134 30.464C110.222 31.976 108.962 33.164 107.354 34.028C105.746 34.868 103.922 35.288 101.882 35.288ZM101.882 30.68C103.322 30.68 104.498 30.2 105.41 29.24C106.346 28.256 106.814 26.948 106.814 25.316C106.814 23.684 106.346 22.388 105.41 21.428C104.498 20.444 103.322 19.952 101.882 19.952C100.442 19.952 99.2542 20.444 98.3182 21.428C97.3822 22.388 96.9142 23.684 96.9142 25.316C96.9142 26.948 97.3822 28.256 98.3182 29.24C99.2542 30.2 100.442 30.68 101.882 30.68ZM128.748 34.064C128.196 34.472 127.512 34.784 126.696 35C125.904 35.192 125.064 35.288 124.176 35.288C121.872 35.288 120.084 34.7 118.812 33.524C117.564 32.348 116.94 30.62 116.94 28.34V20.384H113.952V16.064H116.94V11.348H122.556V16.064H127.38V20.384H122.556V28.268C122.556 29.084 122.76 29.72 123.168 30.176C123.6 30.608 124.2 30.824 124.968 30.824C125.856 30.824 126.612 30.584 127.236 30.104L128.748 34.064ZM150.275 25.388C150.275 25.46 150.239 25.964 150.167 26.9H135.515C135.779 28.1 136.403 29.048 137.387 29.744C138.371 30.44 139.595 30.788 141.059 30.788C142.067 30.788 142.955 30.644 143.723 30.356C144.515 30.044 145.247 29.564 145.919 28.916L148.907 32.156C147.083 34.244 144.419 35.288 140.915 35.288C138.731 35.288 136.799 34.868 135.119 34.028C133.439 33.164 132.143 31.976 131.231 30.464C130.319 28.952 129.863 27.236 129.863 25.316C129.863 23.42 130.307 21.716 131.195 20.204C132.107 18.668 133.343 17.48 134.903 16.64C136.487 15.776 138.251 15.344 140.195 15.344C142.091 15.344 143.807 15.752 145.343 16.568C146.879 17.384 148.079 18.56 148.943 20.096C149.831 21.608 150.275 23.372 150.275 25.388ZM140.231 19.592C138.959 19.592 137.891 19.952 137.027 20.672C136.163 21.392 135.635 22.376 135.443 23.624H144.983C144.791 22.4 144.263 21.428 143.399 20.708C142.535 19.964 141.479 19.592 140.231 19.592Z" fill="#7A57D1"/>
<path d="M159.63 14.552H151.566V9.8H173.526V14.552H165.462V35H159.63V14.552ZM183.095 15.344C186.095 15.344 188.399 16.064 190.007 17.504C191.615 18.92 192.419 21.068 192.419 23.948V35H187.163V32.588C186.107 34.388 184.139 35.288 181.259 35.288C179.771 35.288 178.475 35.036 177.371 34.532C176.291 34.028 175.463 33.332 174.887 32.444C174.311 31.556 174.023 30.548 174.023 29.42C174.023 27.62 174.695 26.204 176.039 25.172C177.407 24.14 179.507 23.624 182.339 23.624H186.803C186.803 22.4 186.431 21.464 185.687 20.816C184.943 20.144 183.827 19.808 182.339 19.808C181.307 19.808 180.287 19.976 179.279 20.312C178.295 20.624 177.455 21.056 176.759 21.608L174.743 17.684C175.799 16.94 177.059 16.364 178.523 15.956C180.011 15.548 181.535 15.344 183.095 15.344ZM182.663 31.508C183.623 31.508 184.475 31.292 185.219 30.86C185.963 30.404 186.491 29.744 186.803 28.88V26.9H182.951C180.647 26.9 179.495 27.656 179.495 29.168C179.495 29.888 179.771 30.464 180.323 30.896C180.899 31.304 181.679 31.508 182.663 31.508ZM205.818 27.404L203.118 30.068V35H197.502V8.288H203.118V23.408L211.326 15.632H218.022L209.958 23.84L218.742 35H211.938L205.818 27.404ZM239.396 25.388C239.396 25.46 239.36 25.964 239.288 26.9H224.636C224.9 28.1 225.524 29.048 226.508 29.744C227.492 30.44 228.716 30.788 230.18 30.788C231.188 30.788 232.076 30.644 232.844 30.356C233.636 30.044 234.368 29.564 235.04 28.916L238.028 32.156C236.204 34.244 233.54 35.288 230.036 35.288C227.852 35.288 225.92 34.868 224.24 34.028C222.56 33.164 221.264 31.976 220.352 30.464C219.44 28.952 218.984 27.236 218.984 25.316C218.984 23.42 219.428 21.716 220.316 20.204C221.228 18.668 222.464 17.48 224.024 16.64C225.608 15.776 227.372 15.344 229.316 15.344C231.212 15.344 232.928 15.752 234.464 16.568C236 17.384 237.2 18.56 238.064 20.096C238.952 21.608 239.396 23.372 239.396 25.388ZM229.352 19.592C228.08 19.592 227.012 19.952 226.148 20.672C225.284 21.392 224.756 22.376 224.564 23.624H234.104C233.912 22.4 233.384 21.428 232.52 20.708C231.656 19.964 230.6 19.592 229.352 19.592ZM248.499 18.188C249.171 17.252 250.071 16.544 251.199 16.064C252.351 15.584 253.671 15.344 255.159 15.344V20.528C254.535 20.48 254.115 20.456 253.899 20.456C252.291 20.456 251.031 20.912 250.119 21.824C249.207 22.712 248.751 24.056 248.751 25.856V35H243.135V15.632H248.499V18.188Z" fill="#4FC1E9"/>
<path d="M41.9562 9.4404L16.9777 16.1334C15.3773 16.5622 14.4275 18.2072 14.8564 19.8076L21.3661 44.1022C21.7949 45.7026 23.4399 46.6524 25.0403 46.2235L50.0188 39.5306C51.6192 39.1018 52.569 37.4567 52.1401 35.8563L45.6304 11.5617C45.2016 9.96132 43.5566 9.01157 41.9562 9.4404Z" fill="#7A57D1"/>
<path d="M35.8596 3H10C8.34315 3 7 4.34314 7 6V31.1517C7 32.8085 8.34315 34.1517 10 34.1517H35.8596C37.5165 34.1517 38.8596 32.8085 38.8596 31.1517V6C38.8596 4.34315 37.5165 3 35.8596 3Z" fill="#4FC1E9"/>
</svg>
